HIERARCHY
ROOT Hips
{
	OFFSET 0.000000 0.000000 0.000000
	CHANNELS 6 Xposition Yposition Zposition Zrotation Yrotation Xrotation 
	JOINT LHipJoint
	{
		OFFSET 0.000000 0.000000 0.000000
		CHANNELS 3 Zrotation Yrotation Xrotation
		JOINT LeftUpLeg
		{
			OFFSET 1.363060 -1.794630 0.839290
			CHANNELS 3 Zrotation Yrotation Xrotation
			JOINT LeftLeg
			{
				OFFSET 2.448110 -6.726130 0.000000
				CHANNELS 3 Zrotation Yrotation Xrotation
				JOINT LeftFoot
				{
					OFFSET 2.562200 -7.039590 0.000000
					CHANNELS 3 Zrotation Yrotation Xrotation
					JOINT LeftToeBase
					{
						OFFSET 0.157640 -0.433110 2.322550
						CHANNELS 3 Zrotation Yrotation Xrotation
						End Site
						{
							OFFSET 0.000000 0.000000 0.000000
						}
					}
				}
			}
		}
	}
	JOINT RHipJoint
	{
		OFFSET 0.000000 0.000000 0.000000
		CHANNELS 3 Zrotation Yrotation Xrotation
		JOINT RightUpLeg
		{
			OFFSET -1.305520 -1.794630 0.839290
			CHANNELS 3 Zrotation Yrotation Xrotation
			JOINT RightLeg
			{
				OFFSET -2.542530 -6.985550 0.000000
				CHANNELS 3 Zrotation Yrotation Xrotation
				JOINT RightFoot
				{
					OFFSET -2.568260 -7.056230 0.000000
					CHANNELS 3 Zrotation Yrotation Xrotation
					JOINT RightToeBase
					{
						OFFSET -0.164730 -0.452590 2.363150
						CHANNELS 3 Zrotation Yrotation Xrotation
						End Site
						{
							OFFSET 0.000000 0.000000 0.000000
						}
					}
				}
			}
		}
	}
	JOINT LowerBack
	{
		OFFSET 0.000000 0.000000 0.000000
		CHANNELS 3 Zrotation Yrotation Xrotation
		JOINT Spine
		{
			OFFSET 0.028270 2.035590 -0.193380
			CHANNELS 3 Zrotation Yrotation Xrotation
			JOINT Spine1
			{
				OFFSET 0.056720 2.048850 -0.042750
				CHANNELS 3 Zrotation Yrotation Xrotation
				JOINT Neck
				{
					OFFSET 0.000000 0.000000 0.000000
					CHANNELS 3 Zrotation Yrotation Xrotation
					JOINT Neck1
					{
						OFFSET -0.054170 1.746240 0.172020
						CHANNELS 3 Zrotation Yrotation Xrotation
						JOINT Head
						{
							OFFSET 0.104070 1.761360 -0.123970
							CHANNELS 3 Zrotation Yrotation Xrotation
							End Site
							{
								OFFSET 0.000000 0.000000 0.000000
							}
						}
					}
				}
				JOINT LeftShoulder
				{
					OFFSET 0.000000 0.000000 0.000000
					CHANNELS 3 Zrotation Yrotation Xrotation
					JOINT LeftArm
					{
						OFFSET 3.362410 1.200890 -0.311210
						CHANNELS 3 Zrotation Yrotation Xrotation
						JOINT LeftForeArm
						{
							OFFSET 4.983000 -0.000000 -0.000000
							CHANNELS 3 Zrotation Yrotation Xrotation
							JOINT LeftHand
							{
								OFFSET 3.483560 -0.000000 -0.000000
								CHANNELS 3 Zrotation Yrotation Xrotation
								JOINT LeftFingerBase
								{
									OFFSET 0.000000 0.000000 0.000000
									CHANNELS 3 Zrotation Yrotation Xrotation
									JOINT LeftHandIndex1
									{
										OFFSET 0.715260 -0.000000 -0.000000
										CHANNELS 3 Zrotation Yrotation Xrotation
										End Site
										{
											OFFSET 0.000000 0.000000 0.000000
										}
									}
								}
								JOINT LThumb
								{
									OFFSET 0.000000 0.000000 0.000000
									CHANNELS 3 Zrotation Yrotation Xrotation
									End Site
									{
										OFFSET 0.000000 0.000000 0.000000
									}
								}
							}
						}
					}
				}
				JOINT RightShoulder
				{
					OFFSET 0.000000 0.000000 0.000000
					CHANNELS 3 Zrotation Yrotation Xrotation
					JOINT RightArm
					{
						OFFSET -3.136600 1.374050 -0.404650
						CHANNELS 3 Zrotation Yrotation Xrotation
						JOINT RightForeArm
						{
							OFFSET -5.241900 -0.000000 -0.000000
							CHANNELS 3 Zrotation Yrotation Xrotation
							JOINT RightHand
							{
								OFFSET -3.444170 -0.000000 -0.000000
								CHANNELS 3 Zrotation Yrotation Xrotation
								JOINT RightFingerBase
								{
									OFFSET 0.000000 0.000000 0.000000
									CHANNELS 3 Zrotation Yrotation Xrotation
									JOINT RightHandIndex1
									{
										OFFSET -0.622530 -0.000000 -0.000000
										CHANNELS 3 Zrotation Yrotation Xrotation
										End Site
										{
											OFFSET 0.000000 0.000000 0.000000
										}
									}
								}
								JOINT RThumb
								{
									OFFSET 0.000000 0.000000 0.000000
									CHANNELS 3 Zrotation Yrotation Xrotation
									End Site
									{
										OFFSET 0.000000 0.000000 0.000000
									}
								}
							}
						}
					}
				}
			}
		}
	}
}
MOTION
Frames: 6
Frame Time: 0.008333
-19.780101 16.169743 -0.254702 51.916165 82.838360 92.274991 -6.348039 0.351907 6.719788 -9.511690 -18.689191 -86.071156 0.224022 3.549999 59.593022 3.002514 11.237579 -9.286457 0.704200 -0.000000 -19.795100 13.316102 -2.909962 1.456567 -0.238890 -7.053886 -6.792748 1.318742 1.138592 -3.585840 -0.604431 -5.216645 9.159994 -1.933900 0.000000 -69.089300 -8.872526 2.806192 -7.043921 -2.502797 3.298309 -4.526841 -3.287902 3.141204 0.712881 3.778153 -3.242003 -2.451721 -0.676384 -0.132752 1.348154 0.000000 0.000000 0.000000 7.694646 15.369145 2.400923 -38.823141 50.193134 30.585667 -3.107589 -48.276586 0.000377 -4.780697 -2.417947 0.095791 -0.127614 -0.069459 -0.000000 0.000000 0.000000 0.000000 0.000000 0.000000 0.000000 -1.936057 1.970399 -3.111930 60.449056 57.521998 8.285896 0.329780 88.562951 -0.018421 0.343910 9.033549 0.041872 -0.146775 -0.660657 -0.000000 0.000000 0.000000 0.000000 0.000000 0.000000 0.000000 
-19.496179 16.232921 -0.243211 52.952904 82.842615 93.369568 -6.220126 0.629051 7.010067 -9.567173 -19.051674 -85.932363 -0.022439 3.385759 56.592500 2.780619 10.535370 -7.417499 1.115300 0.000000 -22.550200 13.570679 -3.087590 1.147880 -0.599236 -8.424392 -5.909391 1.279848 0.959567 -3.702827 -0.589723 -5.279531 12.271143 -2.176400 -0.000000 -65.709501 -9.374117 2.941629 -7.003112 -2.609256 3.468817 -4.533229 -3.192406 3.313967 0.715557 3.560888 -3.209813 -2.461272 -0.586527 -0.126212 1.343820 0.000000 0.000000 0.000000 7.753983 15.578624 2.403714 -38.335654 49.919404 30.254088 -2.999736 -49.854831 0.002272 -4.503404 -2.655425 0.099641 -0.129767 -0.058849 -0.000000 0.000000 0.000000 0.000000 0.000000 0.000000 0.000000 -2.531090 2.076973 -3.092494 59.601962 57.296206 7.433361 0.353562 88.780682 -0.016380 0.542671 8.836670 0.057974 -0.151517 -0.660882 -0.000000 0.000000 0.000000 0.000000 0.000000 0.000000 0.000000 
-19.212328 16.290798 -0.233818 54.044149 82.927139 94.488420 -6.129383 0.878002 7.255354 -9.614312 -19.301940 -85.641740 -0.254804 3.224914 53.679660 2.536578 9.847569 -5.388138 1.507600 -0.000001 -25.612800 13.771702 -3.236704 0.854896 -0.877823 -9.541179 -5.056787 1.219405 0.801974 -3.363998 -0.640792 -5.613043 14.445147 -2.433200 0.000000 -61.512300 -9.786458 3.062949 -6.919548 -2.701368 3.616387 -4.526735 -3.127989 3.465686 0.728515 3.398441 -3.140148 -2.474856 -0.524874 -0.121489 1.336756 0.000000 0.000000 0.000000 7.772955 15.797916 2.410408 -38.146607 49.465903 29.795874 -2.887496 -51.392601 0.003925 -4.183847 -2.859271 0.099889 -0.131757 -0.049698 -0.000000 0.000000 0.000000 0.000000 0.000000 0.000000 0.000000 -2.963913 2.228724 -3.059944 58.958767 56.862868 6.877937 0.371610 88.905836 -0.014617 0.666675 8.659397 0.067088 -0.152349 -0.659180 -0.000000 0.000000 0.000000 0.000000 0.000000 0.000000 0.000000 
-18.928415 16.342348 -0.226318 55.281914 83.092818 95.725654 -6.072746 1.097673 7.448341 -9.670262 -19.438819 -85.200073 -0.471458 3.070239 50.893259 2.280456 9.186771 -3.259106 1.864600 -0.000000 -28.742900 13.915184 -3.362949 0.597397 -1.052776 -10.307578 -4.205441 1.128421 0.665274 -2.613289 -0.743808 -6.268902 15.714719 -2.758400 0.000000 -57.128600 -10.111965 3.173163 -6.806861 -2.780218 3.744767 -4.510402 -3.095980 3.599682 0.750703 3.296425 -3.038273 -2.489931 -0.490848 -0.118612 1.327945 0.000000 0.000000 0.000000 7.736351 16.020012 2.415666 -38.193919 48.840128 29.245463 -2.772227 -52.898804 0.005252 -3.839951 -3.013497 0.096733 -0.133401 -0.042221 -0.000000 0.000000 0.000000 0.000000 0.000000 0.000000 0.000000 -3.231850 2.422598 -3.009948 58.546067 56.212903 6.629648 0.382760 88.918407 -0.012912 0.741520 8.489773 0.071617 -0.149652 -0.655213 -0.000000 0.000000 0.000000 0.000000 0.000000 0.000000 0.000000 
-18.644078 16.386489 -0.220340 56.725268 83.328132 97.138910 -6.044227 1.290009 7.584009 -9.759149 -19.465288 -84.603428 -0.672391 2.924378 48.273937 2.024776 8.565884 -1.118920 2.170300 0.000000 -31.687800 14.002389 -3.468126 0.386000 -1.111498 -10.684077 -3.359470 1.004581 0.543474 -1.446922 -0.884864 -7.202928 16.148124 -3.143100 0.000000 -53.090000 -10.363382 3.274878 -6.672998 -2.848866 3.858120 -4.485722 -3.096219 3.719750 0.783105 3.257951 -2.913428 -2.508478 -0.483308 -0.117490 1.317005 0.000000 0.000000 0.000000 7.651278 16.250784 2.417572 -38.436031 48.021722 28.647926 -2.655817 -54.353084 0.006278 -3.473966 -3.121934 0.090574 -0.134651 -0.036345 -0.000000 0.000000 0.000000 0.000000 0.000000 0.000000 0.000000 -3.334775 2.650214 -2.940270 58.388328 55.349637 6.688815 0.387103 88.783830 -0.010978 0.802296 8.316183 0.074558 -0.144111 -0.648603 -0.000000 0.000000 0.000000 0.000000 0.000000 0.000000 0.000000 
-18.358989 16.422311 -0.215765 58.402454 83.628657 98.755518 -6.040702 1.453419 7.656705 -9.888308 -19.375853 -83.855623 -0.856814 2.789912 45.870271 1.780692 7.986735 0.922583 2.409900 0.000000 -34.244800 14.030810 -3.555808 0.230439 -1.023525 -10.628347 -2.518845 0.847678 0.430125 0.118001 -1.057905 -8.362575 15.877582 -3.558000 0.000001 -49.815599 -10.543334 3.371033 -6.524868 -2.907909 3.960360 -4.454285 -3.128310 3.829361 0.824787 3.281319 -2.772901 -2.533180 -0.501058 -0.118008 1.303396 0.000000 0.000000 0.000000 7.513773 16.494723 2.414056 -38.824844 47.003667 28.039826 -2.540049 -55.743381 0.007057 -3.087530 -3.194265 0.082111 -0.135542 -0.031857 -0.000000 0.000000 0.000000 0.000000 0.000000 0.000000 0.000000 -3.277650 2.905288 -2.849703 58.498432 54.279251 7.040632 0.386005 88.459377 -0.008538 0.885095 8.126151 0.078811 -0.136511 -0.638936 -0.000000 0.000000 0.000000 0.000000 0.000000 0.000000 0.000000 
